<svg width="318" height="92" viewBox="0 0 318 92" fill="none" xmlns="http://www.w3.org/2000/svg">
<path d="M97.8223 75.1296C108.316 75.1296 116.822 66.623 116.822 56.1296C116.822 45.6362 108.316 37.1296 97.8223 37.1296C87.3289 37.1296 78.8223 45.6362 78.8223 56.1296C78.8223 66.623 87.3289 75.1296 97.8223 75.1296Z" fill="url(#paint0_linear)"/>
<path d="M138.862 75.5005C137.911 75.5163 137.005 75.9051 136.338 76.5831C135.671 77.2611 135.297 78.174 135.297 79.125C135.297 80.076 135.671 80.9889 136.338 81.6669C137.005 82.3449 137.911 82.7337 138.862 82.7495H274.74C275.7 82.7628 276.626 82.395 277.315 81.7266C278.003 81.0583 278.399 80.1441 278.415 79.1844C278.431 78.2247 278.065 77.2979 277.399 76.6073C276.732 75.9167 275.819 75.5187 274.859 75.5005C274.819 75.4998 274.78 75.4998 274.74 75.5005H138.862Z" fill="#4C4D28" fill-opacity="0.77"/>
<path d="M309.391 92H65.6088C60.8565 92 57.0052 88.9298 57 85.1463V25.8537C57.0052 22.0702 60.8565 19 65.6088 19H309.391C314.143 19 317.995 22.0702 318 25.8537V85.1452C317.996 88.9287 314.143 91.9954 309.391 92ZM65.6088 21.7392C62.7572 21.7392 60.4465 23.5815 60.4434 25.8514V85.1428C60.4434 87.4127 62.7572 89.2527 65.6088 89.2551H309.391C312.243 89.2551 314.554 87.4127 314.557 85.1428V25.8537C314.557 23.5838 312.243 21.7438 309.391 21.7415L65.6088 21.7392Z" fill="#3F3D56"/>
<path d="M304.225 87.7946H69.3875C64.8095 87.7946 61.0995 85.1517 61.0945 81.8947V30.8527C61.0995 27.5957 64.8095 24.9527 69.3875 24.9527H304.225C308.803 24.9527 312.513 27.5957 312.518 30.8527V81.8937C312.514 85.1507 308.803 87.7907 304.225 87.7946ZM69.3875 27.3107C66.6405 27.3107 64.4145 28.8967 64.4115 30.8507V81.8917C64.4115 83.8457 66.6405 85.4297 69.3875 85.4317H304.225C306.972 85.4317 309.198 83.8457 309.201 81.8917V30.8527C309.201 28.8987 306.972 27.3147 304.225 27.3127L69.3875 27.3107Z" fill="#3F3D56"/>
<path d="M139.632 51.816H144.72C144.72 48.072 144.432 45.816 143.856 45.048C143.312 44.28 142.288 43.896 140.784 43.896C139.28 43.896 137.68 44.104 135.984 44.52C134.32 44.904 132.528 45.496 130.608 46.296L129.216 43.176C129.632 42.984 130.176 42.744 130.848 42.456C131.552 42.136 132.848 41.72 134.736 41.208C136.624 40.696 138.352 40.44 139.92 40.44C145.776 40.44 148.704 43.832 148.704 50.616V69H146.112L145.536 66.072H145.248C144.928 66.328 144.48 66.664 143.904 67.08C143.328 67.464 142.24 67.992 140.64 68.664C139.04 69.304 137.536 69.624 136.128 69.624C133.856 69.624 132.032 68.856 130.656 67.32C129.28 65.752 128.592 63.464 128.592 60.456C128.592 57.416 129.536 55.224 131.424 53.88C133.312 52.504 136.048 51.816 139.632 51.816ZM144.72 55.512C143.344 55.288 141.392 55.176 138.864 55.176C136.368 55.176 134.768 55.48 134.064 56.088C133.2 56.76 132.768 58.184 132.768 60.36C132.768 62.504 133.072 63.992 133.68 64.824C134.32 65.656 135.264 66.072 136.512 66.072C137.792 66.072 139.088 65.864 140.4 65.448C141.712 65 143.152 64.344 144.72 63.48V55.512ZM161.345 76.968H157.361V41.064H160.049L160.577 43.896H160.817C160.881 43.864 161.233 43.624 161.873 43.176C162.513 42.728 163.121 42.328 163.697 41.976C164.305 41.624 165.121 41.288 166.145 40.968C167.169 40.616 168.177 40.44 169.169 40.44C171.857 40.44 173.937 41.592 175.409 43.896C176.881 46.2 177.617 49.736 177.617 54.504C177.617 64.584 174.241 69.624 167.489 69.624C166.017 69.624 163.969 69.4 161.345 68.952V76.968ZM161.345 65.112C164.065 65.784 166.225 66.12 167.825 66.12C169.425 66.12 170.529 65.864 171.137 65.352C172.641 64.104 173.393 60.232 173.393 53.736C173.393 48.744 172.929 45.784 172.001 44.856C171.457 44.312 170.593 44.04 169.409 44.04C168.225 44.04 166.961 44.264 165.617 44.712C164.305 45.128 162.881 45.768 161.345 46.632V65.112ZM184.344 55.08C184.344 50.28 185.128 46.648 186.696 44.184C188.296 41.688 190.984 40.44 194.76 40.44C198.568 40.44 201.272 41.688 202.872 44.184C204.472 46.648 205.272 50.264 205.272 55.032C205.272 59.8 204.472 63.432 202.872 65.928C201.272 68.392 198.568 69.624 194.76 69.624C190.984 69.624 188.296 68.392 186.696 65.928C185.128 63.464 184.344 59.848 184.344 55.08ZM198.648 44.712C197.816 44.168 196.536 43.896 194.808 43.896C193.08 43.896 191.784 44.168 190.92 44.712C190.088 45.256 189.448 46.328 189 47.928C188.584 49.496 188.376 51.864 188.376 55.032C188.376 58.2 188.584 60.584 189 62.184C189.416 63.784 190.056 64.856 190.92 65.4C191.784 65.944 193.08 66.216 194.808 66.216C196.536 66.216 197.816 65.944 198.648 65.4C199.512 64.856 200.152 63.784 200.568 62.184C200.984 60.584 201.192 58.2 201.192 55.032C201.192 51.864 200.984 49.496 200.568 47.928C200.152 46.328 199.512 45.256 198.648 44.712ZM218.961 64.584C219.857 65.608 221.569 66.12 224.097 66.12C226.657 66.12 228.529 65.88 229.713 65.4V54.84L224.625 54.6V51.624H233.553V67.752C231.121 69 228.113 69.624 224.529 69.624C223.089 69.624 221.793 69.48 220.641 69.192C219.489 68.936 218.353 68.424 217.233 67.656C216.145 66.888 215.233 65.864 214.497 64.584C212.897 61.768 212.097 57.64 212.097 52.2C212.097 45.32 213.313 40.664 215.745 38.232C216.961 37.016 218.305 36.184 219.777 35.736C221.249 35.256 223.329 35.016 226.017 35.016C228.737 35.016 231.185 35.288 233.361 35.832L232.881 39.288C229.265 38.872 226.593 38.664 224.865 38.664C221.697 38.664 219.697 39.096 218.865 39.96C217.265 41.624 216.449 45.672 216.417 52.104C216.449 58.568 217.297 62.728 218.961 64.584ZM252.527 69.624C245.103 69.624 241.391 64.76 241.391 55.032C241.391 45.304 245.071 40.44 252.431 40.44C255.695 40.44 258.143 41.464 259.775 43.512C261.407 45.528 262.223 48.888 262.223 53.592V56.568H245.615C245.615 60.888 246.303 63.688 247.679 64.968C248.543 65.736 249.727 66.12 251.231 66.12C253.919 66.12 256.559 65.672 259.151 64.776L260.447 64.296L261.455 67.56C258.767 68.936 255.791 69.624 252.527 69.624ZM257.039 45.336C256.399 44.376 254.831 43.896 252.335 43.896C249.839 43.896 248.095 44.552 247.103 45.864C246.111 47.176 245.615 49.688 245.615 53.4L258.143 53.16C258.143 49.16 257.775 46.552 257.039 45.336ZM279.855 69.624C272.431 69.624 268.719 64.76 268.719 55.032C268.719 45.304 272.399 40.44 279.759 40.44C283.023 40.44 285.471 41.464 287.103 43.512C288.735 45.528 289.551 48.888 289.551 53.592V56.568H272.943C272.943 60.888 273.631 63.688 275.007 64.968C275.871 65.736 277.055 66.12 278.559 66.12C281.247 66.12 283.887 65.672 286.479 64.776L287.775 64.296L288.783 67.56C286.095 68.936 283.119 69.624 279.855 69.624ZM284.367 45.336C283.727 44.376 282.159 43.896 279.663 43.896C277.167 43.896 275.423 44.552 274.431 45.864C273.439 47.176 272.943 49.688 272.943 53.4L285.471 53.16C285.471 49.16 285.103 46.552 284.367 45.336Z" fill="#BB5332"/>
<defs>
<linearGradient id="paint0_linear" x1="97.8223" y1="37.1296" x2="97.8223" y2="75.1296" gradientUnits="userSpaceOnUse">
<stop stop-color="#FF636C"/>
<stop offset="1" stop-color="#135E5E" stop-opacity="0.79"/>
</linearGradient>
</defs>
</svg>
